<?xml version="1.0" encoding="UTF-8"?>
<svg version="1.1" xmlns="http://www.w3.org/2000/svg" width="120" height="60">
<path d="M0 0 C39.6 0 79.2 0 120 0 C120 19.8 120 39.6 120 60 C80.4 60 40.8 60 0 60 C0 40.2 0 20.4 0 0 Z " fill="#FEFEFE" transform="translate(0,0)"/>
<path d="M0 0 C5.28 0 10.56 0 16 0 C16.99 2.64 17.98 5.28 19 8 C21.27468064 4.81115706 21.27468064 4.81115706 23 0 C27.95 0 32.9 0 38 0 C38 1.65 38 3.3 38 5 C37.34 5 36.68 5 36 5 C36 9.95 36 14.9 36 20 C36.66 20 37.32 20 38 20 C38 21.98 38 23.96 38 26 C33.71 26 29.42 26 25 26 C25 24.02 25 22.04 25 20 C25.66 20 26.32 20 27 20 C26.67 17.36 26.34 14.72 26 12 C24.35 16.62 22.7 21.24 21 26 C19.68 26 18.36 26 17 26 C15.02 21.38 13.04 16.76 11 12 C10.67 14.64 10.34 17.28 10 20 C10.66 20 11.32 20 12 20 C12 21.98 12 23.96 12 26 C8.04 26 4.08 26 0 26 C0 24.02 0 22.04 0 20 C0.66 20 1.32 20 2 20 C2 15.05 2 10.1 2 5 C1.34 5 0.68 5 0 5 C0 3.35 0 1.7 0 0 Z " fill="#070707" transform="translate(56,16)"/>
<path d="M0 0 C4.29 0 8.58 0 13 0 C13 1.65 13 3.3 13 5 C12.34 5 11.68 5 11 5 C11 6.65 11 8.3 11 10 C12.65 10 14.3 10 16 10 C16 8.35 16 6.7 16 5 C15.34 5 14.68 5 14 5 C14 3.35 14 1.7 14 0 C18.29 0 22.58 0 27 0 C27 1.65 27 3.3 27 5 C26.34 5 25.68 5 25 5 C25 9.95 25 14.9 25 20 C25.66 20 26.32 20 27 20 C27 21.98 27 23.96 27 26 C22.71 26 18.42 26 14 26 C14 24.02 14 22.04 14 20 C14.66 20 15.32 20 16 20 C16 18.35 16 16.7 16 15 C14.35 15 12.7 15 11 15 C11 16.65 11 18.3 11 20 C11.66 20 12.32 20 13 20 C13 21.98 13 23.96 13 26 C8.71 26 4.42 26 0 26 C0 24.02 0 22.04 0 20 C0.66 20 1.32 20 2 20 C2 15.05 2 10.1 2 5 C1.34 5 0.68 5 0 5 C0 3.35 0 1.7 0 0 Z " fill="#060606" transform="translate(2,16)"/>
<path d="M0 0 C1.54300781 -0.02513672 1.54300781 -0.02513672 3.1171875 -0.05078125 C6.52080211 0.36030467 8.37589013 1.300718 11.125 3.3125 C13.93471876 7.72777234 13.79652092 13.25586654 13.125 18.3125 C11.12842873 22.16794798 9.72792362 23.91055092 6.125 26.3125 C1.60249084 26.90272577 -2.57063971 26.83979459 -6.8125 25.125 C-9.9644885 22.35507071 -11.63911534 20.24481541 -12.16015625 15.9765625 C-12.34261588 10.6931664 -11.91263889 6.81270576 -8.875 2.3125 C-5.45170149 0.03030099 -4.03362332 0.01508837 0 0 Z " fill="#070707" transform="translate(41.875,15.6875)"/>
<path d="M0 0 C7.26 0 14.52 0 22 0 C22 3.3 22 6.6 22 10 C19.69 10 17.38 10 15 10 C15 8.35 15 6.7 15 5 C13.68 5 12.36 5 11 5 C11 6.98 11 8.96 11 11 C11.99 11 12.98 11 14 11 C14 11.99 14 12.98 14 14 C13.01 14 12.02 14 11 14 C11 15.98 11 17.96 11 20 C12.32 20 13.64 20 15 20 C15 18.35 15 16.7 15 15 C17.31 15 19.62 15 22 15 C22 18.63 22 22.26 22 26 C14.74 26 7.48 26 0 26 C0 24.02 0 22.04 0 20 C0.66 20 1.32 20 2 20 C2 15.05 2 10.1 2 5 C1.34 5 0.68 5 0 5 C0 3.35 0 1.7 0 0 Z " fill="#040404" transform="translate(96,16)"/>
<path d="M0 0 C1.32 0 2.64 0 4 0 C4 4.95 4 9.9 4 15 C3.34 15 2.68 15 2 15 C2.33 17.64 2.66 20.28 3 23 C2.01 23.33 1.02 23.66 0 24 C0 16.08 0 8.16 0 0 Z " fill="#F6F6F6" transform="translate(0,21)"/>
<path d="M0 0 C0.99 0 1.98 0 3 0 C4.38226016 2.76452033 4.09525387 5.0461363 4.0625 8.125 C4.05347656 9.22070312 4.04445313 10.31640625 4.03515625 11.4453125 C4.02355469 12.28835937 4.01195312 13.13140625 4 14 C2.0625 14.5625 2.0625 14.5625 0 15 C-1 14 -1 14 -1.1328125 11.09375 C-1.13023438 9.9078125 -1.12765625 8.721875 -1.125 7.5 C-1.12757812 6.3140625 -1.13015625 5.128125 -1.1328125 3.90625 C-1 1 -1 1 0 0 Z " fill="#F4F4F4" transform="translate(41,21)"/>
<path d="M0 0 C1.32 0.33 2.64 0.66 4 1 C4 5.62 4 10.24 4 15 C2.68 15 1.36 15 0 15 C0 10.05 0 5.1 0 0 Z " fill="#F3F3F3" transform="translate(27,21)"/>
<path d="M0 0 C1.65 0 3.3 0 5 0 C5 1.65 5 3.3 5 5 C4.34 5 3.68 5 3 5 C3 6.98 3 8.96 3 11 C2.67 11 2.34 11 2 11 C2 9.02 2 7.04 2 5 C1.34 5 0.68 5 0 5 C0 3.35 0 1.7 0 0 Z " fill="#F8F8F8" transform="translate(13,31)"/>
<path d="M0 0 C0.33 0 0.66 0 1 0 C1 3.63 1 7.26 1 11 C-0.65 11.66 -2.3 12.32 -4 13 C-3.52140759 11.39566191 -3.04210442 9.79153584 -2.5625 8.1875 C-2.29566406 7.29417969 -2.02882813 6.40085937 -1.75390625 5.48046875 C-1.19612127 3.64526945 -0.60655425 1.81966274 0 0 Z " fill="#F3F3F3" transform="translate(82,25)"/>
<path d="M0 0 C1.65 0 3.3 0 5 0 C5 1.65 5 3.3 5 5 C3.35 5 1.7 5 0 5 C0 3.35 0 1.7 0 0 Z " fill="#F7F7F7" transform="translate(13,21)"/>
<path d="M0 0 C1.32 0 2.64 0 4 0 C4 1.65 4 3.3 4 5 C2.68 5.33 1.36 5.66 0 6 C0 4.02 0 2.04 0 0 Z " fill="#F4F4F4" transform="translate(107,21)"/>
</svg>
